<mxfile host="Electron" agent="Mozilla/5.0 (Macintosh; Intel Mac OS X 10_15_7) AppleWebKit/537.36 (KHTML, like Gecko) draw.io/28.1.2 Chrome/138.0.7204.243 Electron/37.4.0 Safari/537.36" version="28.1.2">
  <diagram name="Page-1" id="J3j2Vih8ijAIk5oY_akR">
    <mxGraphModel dx="1019" dy="651" grid="1" gridSize="10" guides="1" tooltips="1" connect="1" arrows="1" fold="1" page="1" pageScale="1" pageWidth="850" pageHeight="1100" math="0" shadow="0">
      <root>
        <mxCell id="0" />
        <mxCell id="1" parent="0" />
        <mxCell id="SrFqV6yDX-PTpv2U8Cud-1" value="PISO" style="whiteSpace=wrap;html=1;aspect=fixed;rounded=1;" vertex="1" parent="1">
          <mxGeometry x="310" y="80" width="220" height="220" as="geometry" />
        </mxCell>
        <mxCell id="SrFqV6yDX-PTpv2U8Cud-2" value="" style="endArrow=classic;html=1;rounded=1;" edge="1" parent="1">
          <mxGeometry width="50" height="50" relative="1" as="geometry">
            <mxPoint x="240" y="105" as="sourcePoint" />
            <mxPoint x="310" y="105" as="targetPoint" />
          </mxGeometry>
        </mxCell>
        <mxCell id="SrFqV6yDX-PTpv2U8Cud-5" value="clk" style="text;html=1;align=center;verticalAlign=middle;resizable=0;points=[];autosize=1;strokeColor=none;fillColor=none;rounded=1;" vertex="1" parent="1">
          <mxGeometry x="240" y="82" width="40" height="30" as="geometry" />
        </mxCell>
        <mxCell id="SrFqV6yDX-PTpv2U8Cud-6" value="" style="endArrow=classic;html=1;rounded=1;" edge="1" parent="1">
          <mxGeometry width="50" height="50" relative="1" as="geometry">
            <mxPoint x="240" y="130" as="sourcePoint" />
            <mxPoint x="310" y="130" as="targetPoint" />
          </mxGeometry>
        </mxCell>
        <mxCell id="SrFqV6yDX-PTpv2U8Cud-7" value="reset" style="text;html=1;align=center;verticalAlign=middle;resizable=0;points=[];autosize=1;strokeColor=none;fillColor=none;rounded=1;" vertex="1" parent="1">
          <mxGeometry x="235" y="107" width="50" height="30" as="geometry" />
        </mxCell>
        <mxCell id="SrFqV6yDX-PTpv2U8Cud-8" value="parallel_i" style="text;html=1;align=center;verticalAlign=middle;resizable=0;points=[];autosize=1;strokeColor=none;fillColor=none;rounded=1;" vertex="1" parent="1">
          <mxGeometry x="200" y="225" width="70" height="30" as="geometry" />
        </mxCell>
        <mxCell id="SrFqV6yDX-PTpv2U8Cud-9" value="" style="endArrow=classic;html=1;rounded=1;strokeWidth=2;" edge="1" parent="1">
          <mxGeometry width="50" height="50" relative="1" as="geometry">
            <mxPoint x="240" y="248" as="sourcePoint" />
            <mxPoint x="310" y="248" as="targetPoint" />
          </mxGeometry>
        </mxCell>
        <mxCell id="SrFqV6yDX-PTpv2U8Cud-10" value="valid_i" style="text;html=1;align=center;verticalAlign=middle;resizable=0;points=[];autosize=1;strokeColor=none;fillColor=none;rounded=1;" vertex="1" parent="1">
          <mxGeometry x="205" y="200" width="60" height="30" as="geometry" />
        </mxCell>
        <mxCell id="SrFqV6yDX-PTpv2U8Cud-11" value="" style="endArrow=classic;html=1;rounded=1;" edge="1" parent="1">
          <mxGeometry width="50" height="50" relative="1" as="geometry">
            <mxPoint x="240" y="223" as="sourcePoint" />
            <mxPoint x="310" y="223" as="targetPoint" />
          </mxGeometry>
        </mxCell>
        <mxCell id="SrFqV6yDX-PTpv2U8Cud-12" value="serial_o" style="text;html=1;align=center;verticalAlign=middle;resizable=0;points=[];autosize=1;strokeColor=none;fillColor=none;rounded=1;" vertex="1" parent="1">
          <mxGeometry x="532" y="225" width="70" height="30" as="geometry" />
        </mxCell>
        <mxCell id="SrFqV6yDX-PTpv2U8Cud-13" value="valid_o" style="text;html=1;align=center;verticalAlign=middle;resizable=0;points=[];autosize=1;strokeColor=none;fillColor=none;rounded=1;" vertex="1" parent="1">
          <mxGeometry x="537" y="200" width="60" height="30" as="geometry" />
        </mxCell>
        <mxCell id="SrFqV6yDX-PTpv2U8Cud-14" value="" style="endArrow=classic;html=1;rounded=1;" edge="1" parent="1">
          <mxGeometry width="50" height="50" relative="1" as="geometry">
            <mxPoint x="530" y="248" as="sourcePoint" />
            <mxPoint x="600" y="248" as="targetPoint" />
          </mxGeometry>
        </mxCell>
        <mxCell id="SrFqV6yDX-PTpv2U8Cud-15" value="" style="endArrow=classic;html=1;rounded=1;" edge="1" parent="1">
          <mxGeometry width="50" height="50" relative="1" as="geometry">
            <mxPoint x="530" y="223" as="sourcePoint" />
            <mxPoint x="600" y="223" as="targetPoint" />
          </mxGeometry>
        </mxCell>
        <mxCell id="SrFqV6yDX-PTpv2U8Cud-29" value="&lt;u&gt;4-bit Parallel to Serial Shift Register&lt;/u&gt;" style="text;html=1;align=center;verticalAlign=middle;resizable=0;points=[];autosize=1;strokeColor=none;fillColor=none;rounded=1;" vertex="1" parent="1">
          <mxGeometry x="315" y="20" width="210" height="30" as="geometry" />
        </mxCell>
        <mxCell id="SrFqV6yDX-PTpv2U8Cud-30" value="" style="endArrow=none;html=1;rounded=1;" edge="1" parent="1">
          <mxGeometry width="50" height="50" relative="1" as="geometry">
            <mxPoint x="280" y="253" as="sourcePoint" />
            <mxPoint x="290" y="243" as="targetPoint" />
          </mxGeometry>
        </mxCell>
        <mxCell id="SrFqV6yDX-PTpv2U8Cud-31" value="4" style="text;html=1;align=center;verticalAlign=middle;resizable=0;points=[];autosize=1;strokeColor=none;fillColor=none;rounded=1;" vertex="1" parent="1">
          <mxGeometry x="269" y="243" width="30" height="30" as="geometry" />
        </mxCell>
        <mxCell id="SrFqV6yDX-PTpv2U8Cud-35" value="" style="endArrow=classic;html=1;rounded=1;" edge="1" parent="1">
          <mxGeometry width="50" height="50" relative="1" as="geometry">
            <mxPoint x="530" y="272" as="sourcePoint" />
            <mxPoint x="600" y="272" as="targetPoint" />
          </mxGeometry>
        </mxCell>
        <mxCell id="SrFqV6yDX-PTpv2U8Cud-36" value="empty_o" style="text;html=1;align=center;verticalAlign=middle;resizable=0;points=[];autosize=1;strokeColor=none;fillColor=none;rounded=1;" vertex="1" parent="1">
          <mxGeometry x="532" y="249" width="70" height="30" as="geometry" />
        </mxCell>
        <mxCell id="SrFqV6yDX-PTpv2U8Cud-41" value="" style="verticalLabelPosition=bottom;shadow=0;dashed=0;align=center;html=1;verticalAlign=top;shape=mxgraph.electrical.logic_gates.d_type_flip-flop;rounded=1;" vertex="1" parent="1">
          <mxGeometry x="301.75" y="470" width="100" height="80" as="geometry" />
        </mxCell>
        <mxCell id="SrFqV6yDX-PTpv2U8Cud-42" value="" style="verticalLabelPosition=bottom;shadow=0;dashed=0;align=center;html=1;verticalAlign=top;shape=mxgraph.electrical.logic_gates.d_type_flip-flop;rounded=1;" vertex="1" parent="1">
          <mxGeometry x="87.75" y="470" width="100" height="80" as="geometry" />
        </mxCell>
        <mxCell id="SrFqV6yDX-PTpv2U8Cud-50" value="if reset: valid_o=0, serial_o=0, counter=0&lt;div&gt;else if valid_i &amp;amp;&amp;amp; empty: SR = parallel_i, counter=0&lt;/div&gt;&lt;div&gt;else if counter&amp;lt;4: sr &amp;lt;&amp;lt;1, counter +=1, valid_o=1,&amp;nbsp;&lt;/div&gt;&lt;div&gt;else if counter ==4: counter=0, valid_o=0.&lt;/div&gt;&lt;div&gt;&lt;br&gt;&lt;/div&gt;" style="text;html=1;align=center;verticalAlign=middle;resizable=0;points=[];autosize=1;strokeColor=none;fillColor=none;rounded=1;" vertex="1" parent="1">
          <mxGeometry x="9" y="660" width="290" height="90" as="geometry" />
        </mxCell>
        <mxCell id="SrFqV6yDX-PTpv2U8Cud-144" value="" style="group" vertex="1" connectable="0" parent="1">
          <mxGeometry x="90" y="770" width="681.5" height="272.5" as="geometry" />
        </mxCell>
        <mxCell id="SrFqV6yDX-PTpv2U8Cud-141" value="3-bit Counter with reset and wrap-around at 4" style="rounded=0;whiteSpace=wrap;html=1;shadow=0;dashed=0;strokeColor=default;align=center;verticalAlign=top;fontFamily=Helvetica;fontSize=12;fontColor=default;labelBackgroundColor=default;fillColor=none;glass=0;" vertex="1" parent="SrFqV6yDX-PTpv2U8Cud-144">
          <mxGeometry width="681.5" height="272.5" as="geometry" />
        </mxCell>
        <mxCell id="SrFqV6yDX-PTpv2U8Cud-77" style="edgeStyle=orthogonalEdgeStyle;shape=connector;curved=0;rounded=0;orthogonalLoop=1;jettySize=auto;html=1;exitX=1;exitY=0.25;exitDx=0;exitDy=0;exitPerimeter=0;strokeColor=default;align=center;verticalAlign=middle;fontFamily=Helvetica;fontSize=12;fontColor=default;labelBackgroundColor=default;endArrow=oval;endFill=1;" edge="1" parent="SrFqV6yDX-PTpv2U8Cud-144" source="SrFqV6yDX-PTpv2U8Cud-53">
          <mxGeometry relative="1" as="geometry">
            <mxPoint x="221.5" y="160" as="targetPoint" />
          </mxGeometry>
        </mxCell>
        <mxCell id="SrFqV6yDX-PTpv2U8Cud-53" value="" style="verticalLabelPosition=bottom;shadow=0;dashed=0;align=center;html=1;verticalAlign=top;shape=mxgraph.electrical.logic_gates.d_type_flip-flop;rounded=1;" vertex="1" parent="SrFqV6yDX-PTpv2U8Cud-144">
          <mxGeometry x="103.5" y="60" width="100" height="80" as="geometry" />
        </mxCell>
        <mxCell id="SrFqV6yDX-PTpv2U8Cud-54" value="&lt;font style=&quot;font-size: 9px;&quot;&gt;clk&lt;/font&gt;" style="text;html=1;align=center;verticalAlign=middle;resizable=0;points=[];autosize=1;strokeColor=none;fillColor=none;rounded=1;" vertex="1" parent="SrFqV6yDX-PTpv2U8Cud-144">
          <mxGeometry x="95.5" y="98" width="30" height="30" as="geometry" />
        </mxCell>
        <mxCell id="SrFqV6yDX-PTpv2U8Cud-60" value="" style="endArrow=none;html=1;rounded=1;exitX=1;exitY=0.75;exitDx=0;exitDy=0;exitPerimeter=0;entryX=0;entryY=0.75;entryDx=0;entryDy=0;entryPerimeter=0;" edge="1" parent="SrFqV6yDX-PTpv2U8Cud-144" source="SrFqV6yDX-PTpv2U8Cud-53">
          <mxGeometry width="50" height="50" relative="1" as="geometry">
            <mxPoint x="31.5" y="70" as="sourcePoint" />
            <mxPoint x="241.5" y="120" as="targetPoint" />
          </mxGeometry>
        </mxCell>
        <mxCell id="SrFqV6yDX-PTpv2U8Cud-61" value="" style="verticalLabelPosition=bottom;shadow=0;dashed=0;align=center;html=1;verticalAlign=top;shape=mxgraph.electrical.logic_gates.logic_gate;operation=and;rounded=1;" vertex="1" parent="SrFqV6yDX-PTpv2U8Cud-144">
          <mxGeometry x="51.5" y="51" width="25" height="20" as="geometry" />
        </mxCell>
        <mxCell id="SrFqV6yDX-PTpv2U8Cud-64" value="&lt;font style=&quot;font-size: 8px;&quot;&gt;reset&lt;/font&gt;" style="text;html=1;align=center;verticalAlign=middle;resizable=0;points=[];autosize=1;strokeColor=none;fillColor=none;fontFamily=Helvetica;fontSize=12;fontColor=default;rounded=1;" vertex="1" parent="SrFqV6yDX-PTpv2U8Cud-144">
          <mxGeometry x="11.5" y="50" width="40" height="30" as="geometry" />
        </mxCell>
        <mxCell id="SrFqV6yDX-PTpv2U8Cud-67" value="" style="ellipse;whiteSpace=wrap;html=1;aspect=fixed;shadow=0;dashed=0;strokeColor=default;align=center;verticalAlign=top;fontFamily=Helvetica;fontSize=12;fontColor=default;fillColor=default;rounded=1;" vertex="1" parent="SrFqV6yDX-PTpv2U8Cud-144">
          <mxGeometry x="51.5" y="62.5" width="5" height="5" as="geometry" />
        </mxCell>
        <mxCell id="SrFqV6yDX-PTpv2U8Cud-70" value="" style="endArrow=none;html=1;rounded=1;fontFamily=Helvetica;fontSize=12;fontColor=default;" edge="1" parent="SrFqV6yDX-PTpv2U8Cud-144">
          <mxGeometry width="50" height="50" relative="1" as="geometry">
            <mxPoint x="41.5" y="65" as="sourcePoint" />
            <mxPoint x="51.5" y="64.96000000000004" as="targetPoint" />
          </mxGeometry>
        </mxCell>
        <mxCell id="SrFqV6yDX-PTpv2U8Cud-75" style="edgeStyle=orthogonalEdgeStyle;shape=connector;rounded=0;orthogonalLoop=1;jettySize=auto;html=1;exitX=1;exitY=0.25;exitDx=0;exitDy=0;exitPerimeter=0;entryX=0.172;entryY=0.243;entryDx=0;entryDy=0;entryPerimeter=0;strokeColor=default;align=center;verticalAlign=middle;fontFamily=Helvetica;fontSize=12;fontColor=default;labelBackgroundColor=default;endArrow=none;endFill=0;curved=0;" edge="1" parent="SrFqV6yDX-PTpv2U8Cud-144" source="SrFqV6yDX-PTpv2U8Cud-53" target="SrFqV6yDX-PTpv2U8Cud-61">
          <mxGeometry relative="1" as="geometry">
            <Array as="points">
              <mxPoint x="223.5" y="80" />
              <mxPoint x="223.5" y="40" />
              <mxPoint x="41.5" y="40" />
              <mxPoint x="41.5" y="55" />
            </Array>
          </mxGeometry>
        </mxCell>
        <mxCell id="SrFqV6yDX-PTpv2U8Cud-79" style="edgeStyle=orthogonalEdgeStyle;shape=connector;curved=0;rounded=0;orthogonalLoop=1;jettySize=auto;html=1;exitX=1;exitY=0.5;exitDx=0;exitDy=0;exitPerimeter=0;entryX=0;entryY=0.25;entryDx=0;entryDy=0;entryPerimeter=0;strokeColor=default;align=center;verticalAlign=middle;fontFamily=Helvetica;fontSize=12;fontColor=default;labelBackgroundColor=default;endArrow=none;endFill=0;" edge="1" parent="SrFqV6yDX-PTpv2U8Cud-144" source="SrFqV6yDX-PTpv2U8Cud-61">
          <mxGeometry relative="1" as="geometry">
            <mxPoint x="78.5" y="75" as="targetPoint" />
          </mxGeometry>
        </mxCell>
        <mxCell id="SrFqV6yDX-PTpv2U8Cud-80" style="edgeStyle=orthogonalEdgeStyle;shape=connector;curved=0;rounded=0;orthogonalLoop=1;jettySize=auto;html=1;exitX=1;exitY=0.25;exitDx=0;exitDy=0;exitPerimeter=0;strokeColor=default;align=center;verticalAlign=middle;fontFamily=Helvetica;fontSize=12;fontColor=default;labelBackgroundColor=default;endArrow=oval;endFill=1;" edge="1" source="SrFqV6yDX-PTpv2U8Cud-81" parent="SrFqV6yDX-PTpv2U8Cud-144">
          <mxGeometry relative="1" as="geometry">
            <mxPoint x="425.5" y="160" as="targetPoint" />
          </mxGeometry>
        </mxCell>
        <mxCell id="SrFqV6yDX-PTpv2U8Cud-139" style="edgeStyle=none;shape=connector;rounded=0;orthogonalLoop=1;jettySize=auto;html=1;exitX=0;exitY=0.75;exitDx=0;exitDy=0;exitPerimeter=0;strokeColor=default;align=center;verticalAlign=middle;fontFamily=Helvetica;fontSize=12;fontColor=default;labelBackgroundColor=default;endArrow=none;" edge="1" parent="SrFqV6yDX-PTpv2U8Cud-144" source="SrFqV6yDX-PTpv2U8Cud-81">
          <mxGeometry relative="1" as="geometry">
            <mxPoint x="241.5" y="120.14285714285711" as="targetPoint" />
          </mxGeometry>
        </mxCell>
        <mxCell id="SrFqV6yDX-PTpv2U8Cud-81" value="" style="verticalLabelPosition=bottom;shadow=0;dashed=0;align=center;html=1;verticalAlign=top;shape=mxgraph.electrical.logic_gates.d_type_flip-flop;rounded=1;" vertex="1" parent="SrFqV6yDX-PTpv2U8Cud-144">
          <mxGeometry x="307.5" y="60" width="100" height="80" as="geometry" />
        </mxCell>
        <mxCell id="SrFqV6yDX-PTpv2U8Cud-83" value="" style="endArrow=none;html=1;rounded=1;exitX=1;exitY=0.75;exitDx=0;exitDy=0;exitPerimeter=0;entryX=0;entryY=0.75;entryDx=0;entryDy=0;entryPerimeter=0;" edge="1" source="SrFqV6yDX-PTpv2U8Cud-81" parent="SrFqV6yDX-PTpv2U8Cud-144">
          <mxGeometry width="50" height="50" relative="1" as="geometry">
            <mxPoint x="235.5" y="70" as="sourcePoint" />
            <mxPoint x="445.5" y="120" as="targetPoint" />
          </mxGeometry>
        </mxCell>
        <mxCell id="SrFqV6yDX-PTpv2U8Cud-84" value="" style="verticalLabelPosition=bottom;shadow=0;dashed=0;align=center;html=1;verticalAlign=top;shape=mxgraph.electrical.logic_gates.logic_gate;operation=and;rounded=1;" vertex="1" parent="SrFqV6yDX-PTpv2U8Cud-144">
          <mxGeometry x="255.5" y="51" width="25" height="20" as="geometry" />
        </mxCell>
        <mxCell id="SrFqV6yDX-PTpv2U8Cud-85" value="" style="ellipse;whiteSpace=wrap;html=1;aspect=fixed;shadow=0;dashed=0;strokeColor=default;align=center;verticalAlign=top;fontFamily=Helvetica;fontSize=12;fontColor=default;fillColor=default;rounded=1;" vertex="1" parent="SrFqV6yDX-PTpv2U8Cud-144">
          <mxGeometry x="255.5" y="62.5" width="5" height="5" as="geometry" />
        </mxCell>
        <mxCell id="SrFqV6yDX-PTpv2U8Cud-86" value="" style="endArrow=none;html=1;rounded=1;fontFamily=Helvetica;fontSize=12;fontColor=default;" edge="1" parent="SrFqV6yDX-PTpv2U8Cud-144">
          <mxGeometry width="50" height="50" relative="1" as="geometry">
            <mxPoint x="245.5" y="65" as="sourcePoint" />
            <mxPoint x="255.5" y="64.96000000000004" as="targetPoint" />
          </mxGeometry>
        </mxCell>
        <mxCell id="SrFqV6yDX-PTpv2U8Cud-87" style="edgeStyle=orthogonalEdgeStyle;shape=connector;rounded=0;orthogonalLoop=1;jettySize=auto;html=1;exitX=1;exitY=0.25;exitDx=0;exitDy=0;exitPerimeter=0;entryX=0.172;entryY=0.243;entryDx=0;entryDy=0;entryPerimeter=0;strokeColor=default;align=center;verticalAlign=middle;fontFamily=Helvetica;fontSize=12;fontColor=default;labelBackgroundColor=default;endArrow=none;endFill=0;curved=0;" edge="1" source="SrFqV6yDX-PTpv2U8Cud-81" target="SrFqV6yDX-PTpv2U8Cud-84" parent="SrFqV6yDX-PTpv2U8Cud-144">
          <mxGeometry relative="1" as="geometry">
            <Array as="points">
              <mxPoint x="427.5" y="80" />
              <mxPoint x="427.5" y="40" />
              <mxPoint x="245.5" y="40" />
              <mxPoint x="245.5" y="55" />
            </Array>
          </mxGeometry>
        </mxCell>
        <mxCell id="SrFqV6yDX-PTpv2U8Cud-89" style="edgeStyle=orthogonalEdgeStyle;shape=connector;curved=0;rounded=0;orthogonalLoop=1;jettySize=auto;html=1;exitX=1;exitY=0.5;exitDx=0;exitDy=0;exitPerimeter=0;entryX=0;entryY=0.25;entryDx=0;entryDy=0;entryPerimeter=0;strokeColor=default;align=center;verticalAlign=middle;fontFamily=Helvetica;fontSize=12;fontColor=default;labelBackgroundColor=default;endArrow=none;endFill=0;" edge="1" source="SrFqV6yDX-PTpv2U8Cud-84" parent="SrFqV6yDX-PTpv2U8Cud-144">
          <mxGeometry relative="1" as="geometry">
            <mxPoint x="282.5" y="75" as="targetPoint" />
          </mxGeometry>
        </mxCell>
        <mxCell id="SrFqV6yDX-PTpv2U8Cud-90" value="&lt;font style=&quot;font-size: 8px;&quot;&gt;reset&lt;/font&gt;" style="text;html=1;align=center;verticalAlign=middle;resizable=0;points=[];autosize=1;strokeColor=none;fillColor=none;fontFamily=Helvetica;fontSize=12;fontColor=default;rounded=1;" vertex="1" parent="SrFqV6yDX-PTpv2U8Cud-144">
          <mxGeometry x="228.5" y="56" width="40" height="30" as="geometry" />
        </mxCell>
        <mxCell id="SrFqV6yDX-PTpv2U8Cud-91" style="edgeStyle=orthogonalEdgeStyle;shape=connector;curved=0;rounded=0;orthogonalLoop=1;jettySize=auto;html=1;exitX=1;exitY=0.25;exitDx=0;exitDy=0;exitPerimeter=0;strokeColor=default;align=center;verticalAlign=middle;fontFamily=Helvetica;fontSize=12;fontColor=default;labelBackgroundColor=default;endArrow=oval;endFill=1;" edge="1" source="SrFqV6yDX-PTpv2U8Cud-92" parent="SrFqV6yDX-PTpv2U8Cud-144">
          <mxGeometry relative="1" as="geometry">
            <mxPoint x="648.5" y="160" as="targetPoint" />
          </mxGeometry>
        </mxCell>
        <mxCell id="SrFqV6yDX-PTpv2U8Cud-140" style="edgeStyle=none;shape=connector;rounded=0;orthogonalLoop=1;jettySize=auto;html=1;exitX=0;exitY=0.75;exitDx=0;exitDy=0;exitPerimeter=0;strokeColor=default;align=center;verticalAlign=middle;fontFamily=Helvetica;fontSize=12;fontColor=default;labelBackgroundColor=default;endArrow=none;" edge="1" parent="SrFqV6yDX-PTpv2U8Cud-144" source="SrFqV6yDX-PTpv2U8Cud-92">
          <mxGeometry relative="1" as="geometry">
            <mxPoint x="441.5" y="120.14285714285711" as="targetPoint" />
          </mxGeometry>
        </mxCell>
        <mxCell id="SrFqV6yDX-PTpv2U8Cud-92" value="" style="verticalLabelPosition=bottom;shadow=0;dashed=0;align=center;html=1;verticalAlign=top;shape=mxgraph.electrical.logic_gates.d_type_flip-flop;rounded=1;" vertex="1" parent="SrFqV6yDX-PTpv2U8Cud-144">
          <mxGeometry x="530.5" y="60" width="100" height="80" as="geometry" />
        </mxCell>
        <mxCell id="SrFqV6yDX-PTpv2U8Cud-95" value="" style="verticalLabelPosition=bottom;shadow=0;dashed=0;align=center;html=1;verticalAlign=top;shape=mxgraph.electrical.logic_gates.logic_gate;operation=and;rounded=1;" vertex="1" parent="SrFqV6yDX-PTpv2U8Cud-144">
          <mxGeometry x="478.5" y="51" width="25" height="20" as="geometry" />
        </mxCell>
        <mxCell id="SrFqV6yDX-PTpv2U8Cud-96" value="" style="ellipse;whiteSpace=wrap;html=1;aspect=fixed;shadow=0;dashed=0;strokeColor=default;align=center;verticalAlign=top;fontFamily=Helvetica;fontSize=12;fontColor=default;fillColor=default;rounded=1;" vertex="1" parent="SrFqV6yDX-PTpv2U8Cud-144">
          <mxGeometry x="478.5" y="62.5" width="5" height="5" as="geometry" />
        </mxCell>
        <mxCell id="SrFqV6yDX-PTpv2U8Cud-97" value="" style="endArrow=none;html=1;rounded=1;fontFamily=Helvetica;fontSize=12;fontColor=default;" edge="1" parent="SrFqV6yDX-PTpv2U8Cud-144">
          <mxGeometry width="50" height="50" relative="1" as="geometry">
            <mxPoint x="468.5" y="65" as="sourcePoint" />
            <mxPoint x="478.5" y="64.96000000000004" as="targetPoint" />
          </mxGeometry>
        </mxCell>
        <mxCell id="SrFqV6yDX-PTpv2U8Cud-98" style="edgeStyle=orthogonalEdgeStyle;shape=connector;rounded=0;orthogonalLoop=1;jettySize=auto;html=1;exitX=1;exitY=0.25;exitDx=0;exitDy=0;exitPerimeter=0;entryX=0.172;entryY=0.243;entryDx=0;entryDy=0;entryPerimeter=0;strokeColor=default;align=center;verticalAlign=middle;fontFamily=Helvetica;fontSize=12;fontColor=default;labelBackgroundColor=default;endArrow=none;endFill=0;curved=0;" edge="1" source="SrFqV6yDX-PTpv2U8Cud-92" target="SrFqV6yDX-PTpv2U8Cud-95" parent="SrFqV6yDX-PTpv2U8Cud-144">
          <mxGeometry relative="1" as="geometry">
            <Array as="points">
              <mxPoint x="650.5" y="80" />
              <mxPoint x="650.5" y="40" />
              <mxPoint x="468.5" y="40" />
              <mxPoint x="468.5" y="55" />
            </Array>
          </mxGeometry>
        </mxCell>
        <mxCell id="SrFqV6yDX-PTpv2U8Cud-100" style="edgeStyle=orthogonalEdgeStyle;shape=connector;curved=0;rounded=0;orthogonalLoop=1;jettySize=auto;html=1;exitX=1;exitY=0.5;exitDx=0;exitDy=0;exitPerimeter=0;entryX=0;entryY=0.25;entryDx=0;entryDy=0;entryPerimeter=0;strokeColor=default;align=center;verticalAlign=middle;fontFamily=Helvetica;fontSize=12;fontColor=default;labelBackgroundColor=default;endArrow=none;endFill=0;" edge="1" source="SrFqV6yDX-PTpv2U8Cud-95" parent="SrFqV6yDX-PTpv2U8Cud-144">
          <mxGeometry relative="1" as="geometry">
            <mxPoint x="505.5" y="75" as="targetPoint" />
          </mxGeometry>
        </mxCell>
        <mxCell id="SrFqV6yDX-PTpv2U8Cud-101" value="&lt;font style=&quot;font-size: 8px;&quot;&gt;reset&lt;/font&gt;" style="text;html=1;align=center;verticalAlign=middle;resizable=0;points=[];autosize=1;strokeColor=none;fillColor=none;fontFamily=Helvetica;fontSize=12;fontColor=default;rounded=1;" vertex="1" parent="SrFqV6yDX-PTpv2U8Cud-144">
          <mxGeometry x="451.5" y="56" width="40" height="30" as="geometry" />
        </mxCell>
        <mxCell id="SrFqV6yDX-PTpv2U8Cud-102" value="C0" style="text;html=1;align=center;verticalAlign=middle;resizable=0;points=[];autosize=1;strokeColor=none;fillColor=none;fontFamily=Helvetica;fontSize=12;fontColor=default;labelBackgroundColor=default;" vertex="1" parent="SrFqV6yDX-PTpv2U8Cud-144">
          <mxGeometry x="201.5" y="158" width="40" height="30" as="geometry" />
        </mxCell>
        <mxCell id="SrFqV6yDX-PTpv2U8Cud-103" value="C1" style="text;html=1;align=center;verticalAlign=middle;resizable=0;points=[];autosize=1;strokeColor=none;fillColor=none;fontFamily=Helvetica;fontSize=12;fontColor=default;labelBackgroundColor=default;" vertex="1" parent="SrFqV6yDX-PTpv2U8Cud-144">
          <mxGeometry x="405.5" y="158" width="40" height="30" as="geometry" />
        </mxCell>
        <mxCell id="SrFqV6yDX-PTpv2U8Cud-104" value="C2" style="text;html=1;align=center;verticalAlign=middle;resizable=0;points=[];autosize=1;strokeColor=none;fillColor=none;fontFamily=Helvetica;fontSize=12;fontColor=default;labelBackgroundColor=default;" vertex="1" parent="SrFqV6yDX-PTpv2U8Cud-144">
          <mxGeometry x="631.5" y="158" width="40" height="30" as="geometry" />
        </mxCell>
        <mxCell id="SrFqV6yDX-PTpv2U8Cud-105" value="&lt;font style=&quot;font-size: 9px;&quot;&gt;equal_4&lt;/font&gt;" style="text;html=1;align=center;verticalAlign=middle;resizable=0;points=[];autosize=1;strokeColor=none;fillColor=none;fontFamily=Helvetica;fontSize=12;fontColor=default;labelBackgroundColor=default;" vertex="1" parent="SrFqV6yDX-PTpv2U8Cud-144">
          <mxGeometry x="20.5" y="69" width="60" height="30" as="geometry" />
        </mxCell>
        <mxCell id="SrFqV6yDX-PTpv2U8Cud-112" value="" style="group" vertex="1" connectable="0" parent="SrFqV6yDX-PTpv2U8Cud-144">
          <mxGeometry x="68.5" y="70" width="35" height="20" as="geometry" />
        </mxCell>
        <mxCell id="SrFqV6yDX-PTpv2U8Cud-109" value="" style="verticalLabelPosition=bottom;shadow=0;dashed=0;align=center;html=1;verticalAlign=top;shape=mxgraph.electrical.logic_gates.logic_gate;operation=and;" vertex="1" parent="SrFqV6yDX-PTpv2U8Cud-112">
          <mxGeometry x="10" width="25" height="20" as="geometry" />
        </mxCell>
        <mxCell id="SrFqV6yDX-PTpv2U8Cud-110" value="" style="ellipse;whiteSpace=wrap;html=1;aspect=fixed;shadow=0;dashed=0;strokeColor=default;align=center;verticalAlign=top;fontFamily=Helvetica;fontSize=12;fontColor=default;fillColor=default;" vertex="1" parent="SrFqV6yDX-PTpv2U8Cud-112">
          <mxGeometry x="10" y="12.5" width="5" height="5" as="geometry" />
        </mxCell>
        <mxCell id="SrFqV6yDX-PTpv2U8Cud-111" value="" style="endArrow=none;html=1;rounded=0;fontFamily=Helvetica;fontSize=12;fontColor=default;" edge="1" parent="SrFqV6yDX-PTpv2U8Cud-112">
          <mxGeometry width="50" height="50" relative="1" as="geometry">
            <mxPoint y="15" as="sourcePoint" />
            <mxPoint x="10" y="14.960000000000036" as="targetPoint" />
          </mxGeometry>
        </mxCell>
        <mxCell id="SrFqV6yDX-PTpv2U8Cud-117" value="&lt;font style=&quot;font-size: 9px;&quot;&gt;equal_4&lt;/font&gt;" style="text;html=1;align=center;verticalAlign=middle;resizable=0;points=[];autosize=1;strokeColor=none;fillColor=none;fontFamily=Helvetica;fontSize=12;fontColor=default;labelBackgroundColor=default;" vertex="1" parent="SrFqV6yDX-PTpv2U8Cud-144">
          <mxGeometry x="224.5" y="69" width="60" height="30" as="geometry" />
        </mxCell>
        <mxCell id="SrFqV6yDX-PTpv2U8Cud-118" value="" style="group" vertex="1" connectable="0" parent="SrFqV6yDX-PTpv2U8Cud-144">
          <mxGeometry x="272.5" y="70" width="35" height="20" as="geometry" />
        </mxCell>
        <mxCell id="SrFqV6yDX-PTpv2U8Cud-119" value="" style="verticalLabelPosition=bottom;shadow=0;dashed=0;align=center;html=1;verticalAlign=top;shape=mxgraph.electrical.logic_gates.logic_gate;operation=and;" vertex="1" parent="SrFqV6yDX-PTpv2U8Cud-118">
          <mxGeometry x="10" width="25" height="20" as="geometry" />
        </mxCell>
        <mxCell id="SrFqV6yDX-PTpv2U8Cud-120" value="" style="ellipse;whiteSpace=wrap;html=1;aspect=fixed;shadow=0;dashed=0;strokeColor=default;align=center;verticalAlign=top;fontFamily=Helvetica;fontSize=12;fontColor=default;fillColor=default;" vertex="1" parent="SrFqV6yDX-PTpv2U8Cud-118">
          <mxGeometry x="10" y="12.5" width="5" height="5" as="geometry" />
        </mxCell>
        <mxCell id="SrFqV6yDX-PTpv2U8Cud-121" value="" style="endArrow=none;html=1;rounded=0;fontFamily=Helvetica;fontSize=12;fontColor=default;" edge="1" parent="SrFqV6yDX-PTpv2U8Cud-118">
          <mxGeometry width="50" height="50" relative="1" as="geometry">
            <mxPoint y="15" as="sourcePoint" />
            <mxPoint x="10" y="14.960000000000036" as="targetPoint" />
          </mxGeometry>
        </mxCell>
        <mxCell id="SrFqV6yDX-PTpv2U8Cud-122" value="&lt;font style=&quot;font-size: 9px;&quot;&gt;equal_4&lt;/font&gt;" style="text;html=1;align=center;verticalAlign=middle;resizable=0;points=[];autosize=1;strokeColor=none;fillColor=none;fontFamily=Helvetica;fontSize=12;fontColor=default;labelBackgroundColor=default;" vertex="1" parent="SrFqV6yDX-PTpv2U8Cud-144">
          <mxGeometry x="447.5" y="69" width="60" height="30" as="geometry" />
        </mxCell>
        <mxCell id="SrFqV6yDX-PTpv2U8Cud-123" value="" style="group" vertex="1" connectable="0" parent="SrFqV6yDX-PTpv2U8Cud-144">
          <mxGeometry x="495.5" y="70" width="35" height="20" as="geometry" />
        </mxCell>
        <mxCell id="SrFqV6yDX-PTpv2U8Cud-124" value="" style="verticalLabelPosition=bottom;shadow=0;dashed=0;align=center;html=1;verticalAlign=top;shape=mxgraph.electrical.logic_gates.logic_gate;operation=and;" vertex="1" parent="SrFqV6yDX-PTpv2U8Cud-123">
          <mxGeometry x="10" width="25" height="20" as="geometry" />
        </mxCell>
        <mxCell id="SrFqV6yDX-PTpv2U8Cud-125" value="" style="ellipse;whiteSpace=wrap;html=1;aspect=fixed;shadow=0;dashed=0;strokeColor=default;align=center;verticalAlign=top;fontFamily=Helvetica;fontSize=12;fontColor=default;fillColor=default;" vertex="1" parent="SrFqV6yDX-PTpv2U8Cud-123">
          <mxGeometry x="10" y="12.5" width="5" height="5" as="geometry" />
        </mxCell>
        <mxCell id="SrFqV6yDX-PTpv2U8Cud-126" value="" style="endArrow=none;html=1;rounded=0;fontFamily=Helvetica;fontSize=12;fontColor=default;" edge="1" parent="SrFqV6yDX-PTpv2U8Cud-123">
          <mxGeometry width="50" height="50" relative="1" as="geometry">
            <mxPoint y="15" as="sourcePoint" />
            <mxPoint x="10" y="14.960000000000036" as="targetPoint" />
          </mxGeometry>
        </mxCell>
        <mxCell id="SrFqV6yDX-PTpv2U8Cud-127" value="&lt;font&gt;equal_4&lt;/font&gt;" style="text;html=1;align=center;verticalAlign=middle;resizable=0;points=[];autosize=1;strokeColor=none;fillColor=none;fontFamily=Helvetica;fontSize=12;fontColor=default;labelBackgroundColor=default;" vertex="1" parent="SrFqV6yDX-PTpv2U8Cud-144">
          <mxGeometry x="448.5" y="211" width="70" height="30" as="geometry" />
        </mxCell>
        <mxCell id="SrFqV6yDX-PTpv2U8Cud-128" value="" style="verticalLabelPosition=bottom;shadow=0;dashed=0;align=center;html=1;verticalAlign=top;shape=mxgraph.electrical.logic_gates.logic_gate;operation=and;rounded=1;strokeColor=default;fontFamily=Helvetica;fontSize=12;fontColor=default;labelBackgroundColor=default;fillColor=default;" vertex="1" parent="SrFqV6yDX-PTpv2U8Cud-144">
          <mxGeometry x="359.5" y="197" width="100" height="60" as="geometry" />
        </mxCell>
        <mxCell id="SrFqV6yDX-PTpv2U8Cud-133" value="" style="endArrow=none;html=1;rounded=0;strokeColor=default;align=center;verticalAlign=middle;fontFamily=Helvetica;fontSize=12;fontColor=default;labelBackgroundColor=default;entryX=0.214;entryY=0.473;entryDx=0;entryDy=0;entryPerimeter=0;" edge="1" parent="SrFqV6yDX-PTpv2U8Cud-144">
          <mxGeometry width="50" height="50" relative="1" as="geometry">
            <mxPoint x="358.5" y="225" as="sourcePoint" />
            <mxPoint x="379.9" y="225.3800000000001" as="targetPoint" />
          </mxGeometry>
        </mxCell>
        <mxCell id="SrFqV6yDX-PTpv2U8Cud-134" value="" style="ellipse;whiteSpace=wrap;html=1;aspect=fixed;rounded=1;shadow=0;dashed=0;strokeColor=default;align=center;verticalAlign=top;fontFamily=Helvetica;fontSize=12;fontColor=default;labelBackgroundColor=default;fillColor=default;" vertex="1" parent="SrFqV6yDX-PTpv2U8Cud-144">
          <mxGeometry x="368.5" y="237" width="10" height="10" as="geometry" />
        </mxCell>
        <mxCell id="SrFqV6yDX-PTpv2U8Cud-135" value="" style="ellipse;whiteSpace=wrap;html=1;aspect=fixed;rounded=1;shadow=0;dashed=0;strokeColor=default;align=center;verticalAlign=top;fontFamily=Helvetica;fontSize=12;fontColor=default;labelBackgroundColor=default;fillColor=default;" vertex="1" parent="SrFqV6yDX-PTpv2U8Cud-144">
          <mxGeometry x="368.5" y="220" width="10" height="10" as="geometry" />
        </mxCell>
        <mxCell id="SrFqV6yDX-PTpv2U8Cud-136" value="C0" style="text;html=1;align=center;verticalAlign=middle;resizable=0;points=[];autosize=1;strokeColor=none;fillColor=none;fontFamily=Helvetica;fontSize=12;fontColor=default;labelBackgroundColor=default;" vertex="1" parent="SrFqV6yDX-PTpv2U8Cud-144">
          <mxGeometry x="328.5" y="227" width="40" height="30" as="geometry" />
        </mxCell>
        <mxCell id="SrFqV6yDX-PTpv2U8Cud-137" value="C1" style="text;html=1;align=center;verticalAlign=middle;resizable=0;points=[];autosize=1;strokeColor=none;fillColor=none;fontFamily=Helvetica;fontSize=12;fontColor=default;labelBackgroundColor=default;" vertex="1" parent="SrFqV6yDX-PTpv2U8Cud-144">
          <mxGeometry x="328.5" y="210" width="40" height="30" as="geometry" />
        </mxCell>
        <mxCell id="SrFqV6yDX-PTpv2U8Cud-138" value="C2" style="text;html=1;align=center;verticalAlign=middle;resizable=0;points=[];autosize=1;strokeColor=none;fillColor=none;fontFamily=Helvetica;fontSize=12;fontColor=default;labelBackgroundColor=default;" vertex="1" parent="SrFqV6yDX-PTpv2U8Cud-144">
          <mxGeometry x="328.5" y="196" width="40" height="30" as="geometry" />
        </mxCell>
        <mxCell id="SrFqV6yDX-PTpv2U8Cud-213" value="&lt;font&gt;empty_o&lt;/font&gt;" style="text;html=1;align=center;verticalAlign=middle;resizable=0;points=[];autosize=1;strokeColor=none;fillColor=none;fontFamily=Helvetica;fontSize=12;fontColor=default;labelBackgroundColor=default;" vertex="1" parent="SrFqV6yDX-PTpv2U8Cud-144">
          <mxGeometry x="210" y="211" width="70" height="30" as="geometry" />
        </mxCell>
        <mxCell id="SrFqV6yDX-PTpv2U8Cud-214" value="" style="verticalLabelPosition=bottom;shadow=0;dashed=0;align=center;html=1;verticalAlign=top;shape=mxgraph.electrical.logic_gates.logic_gate;operation=and;rounded=1;strokeColor=default;fontFamily=Helvetica;fontSize=12;fontColor=default;labelBackgroundColor=default;fillColor=default;" vertex="1" parent="SrFqV6yDX-PTpv2U8Cud-144">
          <mxGeometry x="121" y="197" width="100" height="60" as="geometry" />
        </mxCell>
        <mxCell id="SrFqV6yDX-PTpv2U8Cud-215" value="" style="endArrow=none;html=1;rounded=0;strokeColor=default;align=center;verticalAlign=middle;fontFamily=Helvetica;fontSize=12;fontColor=default;labelBackgroundColor=default;entryX=0.214;entryY=0.473;entryDx=0;entryDy=0;entryPerimeter=0;" edge="1" parent="SrFqV6yDX-PTpv2U8Cud-144">
          <mxGeometry width="50" height="50" relative="1" as="geometry">
            <mxPoint x="120" y="225" as="sourcePoint" />
            <mxPoint x="141.39999999999998" y="225.3800000000001" as="targetPoint" />
          </mxGeometry>
        </mxCell>
        <mxCell id="SrFqV6yDX-PTpv2U8Cud-216" value="" style="ellipse;whiteSpace=wrap;html=1;aspect=fixed;rounded=1;shadow=0;dashed=0;strokeColor=default;align=center;verticalAlign=top;fontFamily=Helvetica;fontSize=12;fontColor=default;labelBackgroundColor=default;fillColor=default;" vertex="1" parent="SrFqV6yDX-PTpv2U8Cud-144">
          <mxGeometry x="130" y="237" width="10" height="10" as="geometry" />
        </mxCell>
        <mxCell id="SrFqV6yDX-PTpv2U8Cud-217" value="" style="ellipse;whiteSpace=wrap;html=1;aspect=fixed;rounded=1;shadow=0;dashed=0;strokeColor=default;align=center;verticalAlign=top;fontFamily=Helvetica;fontSize=12;fontColor=default;labelBackgroundColor=default;fillColor=default;" vertex="1" parent="SrFqV6yDX-PTpv2U8Cud-144">
          <mxGeometry x="130" y="220" width="10" height="10" as="geometry" />
        </mxCell>
        <mxCell id="SrFqV6yDX-PTpv2U8Cud-218" value="C0" style="text;html=1;align=center;verticalAlign=middle;resizable=0;points=[];autosize=1;strokeColor=none;fillColor=none;fontFamily=Helvetica;fontSize=12;fontColor=default;labelBackgroundColor=default;" vertex="1" parent="SrFqV6yDX-PTpv2U8Cud-144">
          <mxGeometry x="90" y="227" width="40" height="30" as="geometry" />
        </mxCell>
        <mxCell id="SrFqV6yDX-PTpv2U8Cud-219" value="C1" style="text;html=1;align=center;verticalAlign=middle;resizable=0;points=[];autosize=1;strokeColor=none;fillColor=none;fontFamily=Helvetica;fontSize=12;fontColor=default;labelBackgroundColor=default;" vertex="1" parent="SrFqV6yDX-PTpv2U8Cud-144">
          <mxGeometry x="90" y="210" width="40" height="30" as="geometry" />
        </mxCell>
        <mxCell id="SrFqV6yDX-PTpv2U8Cud-220" value="C2" style="text;html=1;align=center;verticalAlign=middle;resizable=0;points=[];autosize=1;strokeColor=none;fillColor=none;fontFamily=Helvetica;fontSize=12;fontColor=default;labelBackgroundColor=default;" vertex="1" parent="SrFqV6yDX-PTpv2U8Cud-144">
          <mxGeometry x="90" y="196" width="40" height="30" as="geometry" />
        </mxCell>
        <mxCell id="SrFqV6yDX-PTpv2U8Cud-221" value="" style="ellipse;whiteSpace=wrap;html=1;aspect=fixed;rounded=1;shadow=0;dashed=0;strokeColor=default;align=center;verticalAlign=top;fontFamily=Helvetica;fontSize=12;fontColor=default;labelBackgroundColor=default;fillColor=default;" vertex="1" parent="SrFqV6yDX-PTpv2U8Cud-144">
          <mxGeometry x="130" y="207" width="10" height="10" as="geometry" />
        </mxCell>
        <mxCell id="SrFqV6yDX-PTpv2U8Cud-163" value="" style="group" vertex="1" connectable="0" parent="1">
          <mxGeometry x="660" y="580" width="138" height="45" as="geometry" />
        </mxCell>
        <mxCell id="SrFqV6yDX-PTpv2U8Cud-145" value="&lt;font style=&quot;font-size: 10px;&quot;&gt;valid_o&lt;/font&gt;" style="text;html=1;align=center;verticalAlign=middle;resizable=0;points=[];autosize=1;strokeColor=none;fillColor=none;fontFamily=Helvetica;fontSize=12;fontColor=default;labelBackgroundColor=default;" vertex="1" parent="SrFqV6yDX-PTpv2U8Cud-163">
          <mxGeometry x="78" y="8" width="60" height="30" as="geometry" />
        </mxCell>
        <mxCell id="SrFqV6yDX-PTpv2U8Cud-150" value="" style="group;rounded=1;shadow=0;dashed=0;strokeColor=none;align=center;verticalAlign=top;fontFamily=Helvetica;fontSize=12;fontColor=default;labelBackgroundColor=default;fillColor=default;container=0;" vertex="1" connectable="0" parent="SrFqV6yDX-PTpv2U8Cud-163">
          <mxGeometry x="52" y="15" width="35" height="20" as="geometry" />
        </mxCell>
        <mxCell id="SrFqV6yDX-PTpv2U8Cud-155" value="&lt;font style=&quot;font-size: 10px;&quot;&gt;equal_4&lt;/font&gt;" style="text;html=1;align=center;verticalAlign=middle;resizable=0;points=[];autosize=1;strokeColor=none;fillColor=none;fontFamily=Helvetica;fontSize=12;fontColor=default;labelBackgroundColor=default;" vertex="1" parent="SrFqV6yDX-PTpv2U8Cud-163">
          <mxGeometry y="15" width="60" height="30" as="geometry" />
        </mxCell>
        <mxCell id="SrFqV6yDX-PTpv2U8Cud-157" value="&lt;span style=&quot;font-size: 10px;&quot;&gt;empty_o&lt;/span&gt;" style="text;html=1;align=center;verticalAlign=middle;resizable=0;points=[];autosize=1;strokeColor=none;fillColor=none;fontFamily=Helvetica;fontSize=12;fontColor=default;labelBackgroundColor=default;" vertex="1" parent="SrFqV6yDX-PTpv2U8Cud-163">
          <mxGeometry x="-1" width="60" height="30" as="geometry" />
        </mxCell>
        <mxCell id="SrFqV6yDX-PTpv2U8Cud-151" value="" style="verticalLabelPosition=bottom;shadow=0;dashed=0;align=center;html=1;verticalAlign=top;shape=mxgraph.electrical.logic_gates.logic_gate;operation=and;rounded=1;strokeColor=default;fontFamily=Helvetica;fontSize=12;fontColor=default;labelBackgroundColor=default;fillColor=default;" vertex="1" parent="SrFqV6yDX-PTpv2U8Cud-163">
          <mxGeometry x="62" y="15" width="25" height="20" as="geometry" />
        </mxCell>
        <mxCell id="SrFqV6yDX-PTpv2U8Cud-152" value="" style="ellipse;whiteSpace=wrap;html=1;aspect=fixed;shadow=0;dashed=0;strokeColor=default;align=center;verticalAlign=top;fontFamily=Helvetica;fontSize=12;fontColor=default;fillColor=default;rounded=1;labelBackgroundColor=default;" vertex="1" parent="SrFqV6yDX-PTpv2U8Cud-163">
          <mxGeometry x="62" y="27.5" width="5" height="5" as="geometry" />
        </mxCell>
        <mxCell id="SrFqV6yDX-PTpv2U8Cud-153" value="" style="endArrow=none;html=1;rounded=0;fontFamily=Helvetica;fontSize=12;fontColor=default;strokeColor=default;align=center;verticalAlign=middle;labelBackgroundColor=default;" edge="1" parent="SrFqV6yDX-PTpv2U8Cud-163">
          <mxGeometry width="50" height="50" relative="1" as="geometry">
            <mxPoint x="52" y="30" as="sourcePoint" />
            <mxPoint x="62" y="29.960000000000036" as="targetPoint" />
          </mxGeometry>
        </mxCell>
        <mxCell id="SrFqV6yDX-PTpv2U8Cud-159" value="" style="ellipse;whiteSpace=wrap;html=1;aspect=fixed;shadow=0;dashed=0;strokeColor=default;align=center;verticalAlign=top;fontFamily=Helvetica;fontSize=12;fontColor=default;fillColor=default;rounded=1;labelBackgroundColor=default;" vertex="1" parent="SrFqV6yDX-PTpv2U8Cud-163">
          <mxGeometry x="62" y="27.5" width="5" height="5" as="geometry" />
        </mxCell>
        <mxCell id="SrFqV6yDX-PTpv2U8Cud-160" value="" style="endArrow=none;html=1;rounded=0;fontFamily=Helvetica;fontSize=12;fontColor=default;strokeColor=default;align=center;verticalAlign=middle;labelBackgroundColor=default;" edge="1" parent="SrFqV6yDX-PTpv2U8Cud-163">
          <mxGeometry width="50" height="50" relative="1" as="geometry">
            <mxPoint x="52" y="30" as="sourcePoint" />
            <mxPoint x="62" y="29.960000000000036" as="targetPoint" />
          </mxGeometry>
        </mxCell>
        <mxCell id="SrFqV6yDX-PTpv2U8Cud-161" value="" style="ellipse;whiteSpace=wrap;html=1;aspect=fixed;shadow=0;dashed=0;strokeColor=default;align=center;verticalAlign=top;fontFamily=Helvetica;fontSize=12;fontColor=default;fillColor=default;rounded=1;labelBackgroundColor=default;" vertex="1" parent="SrFqV6yDX-PTpv2U8Cud-163">
          <mxGeometry x="62" y="18" width="5" height="5" as="geometry" />
        </mxCell>
        <mxCell id="SrFqV6yDX-PTpv2U8Cud-162" value="" style="endArrow=none;html=1;rounded=0;fontFamily=Helvetica;fontSize=12;fontColor=default;strokeColor=default;align=center;verticalAlign=middle;labelBackgroundColor=default;" edge="1" parent="SrFqV6yDX-PTpv2U8Cud-163">
          <mxGeometry width="50" height="50" relative="1" as="geometry">
            <mxPoint x="52" y="20.5" as="sourcePoint" />
            <mxPoint x="62" y="20.460000000000036" as="targetPoint" />
          </mxGeometry>
        </mxCell>
        <mxCell id="SrFqV6yDX-PTpv2U8Cud-168" value="" style="group;rounded=1;shadow=0;dashed=0;strokeColor=none;align=center;verticalAlign=top;fontFamily=Helvetica;fontSize=12;fontColor=default;labelBackgroundColor=default;fillColor=default;" vertex="1" connectable="0" parent="1">
          <mxGeometry x="56" y="480" width="35" height="20" as="geometry" />
        </mxCell>
        <mxCell id="SrFqV6yDX-PTpv2U8Cud-169" value="" style="verticalLabelPosition=bottom;shadow=0;dashed=0;align=center;html=1;verticalAlign=top;shape=mxgraph.electrical.logic_gates.logic_gate;operation=and;rounded=1;strokeColor=default;fontFamily=Helvetica;fontSize=12;fontColor=default;labelBackgroundColor=default;fillColor=default;" vertex="1" parent="SrFqV6yDX-PTpv2U8Cud-168">
          <mxGeometry x="10" width="25" height="20" as="geometry" />
        </mxCell>
        <mxCell id="SrFqV6yDX-PTpv2U8Cud-170" value="" style="ellipse;whiteSpace=wrap;html=1;aspect=fixed;shadow=0;dashed=0;strokeColor=default;align=center;verticalAlign=top;fontFamily=Helvetica;fontSize=12;fontColor=default;fillColor=default;rounded=1;labelBackgroundColor=default;" vertex="1" parent="SrFqV6yDX-PTpv2U8Cud-168">
          <mxGeometry x="10" y="12.5" width="5" height="5" as="geometry" />
        </mxCell>
        <mxCell id="SrFqV6yDX-PTpv2U8Cud-171" value="" style="endArrow=none;html=1;rounded=0;fontFamily=Helvetica;fontSize=12;fontColor=default;strokeColor=default;align=center;verticalAlign=middle;labelBackgroundColor=default;" edge="1" parent="SrFqV6yDX-PTpv2U8Cud-168">
          <mxGeometry width="50" height="50" relative="1" as="geometry">
            <mxPoint y="15" as="sourcePoint" />
            <mxPoint x="10" y="14.960000000000036" as="targetPoint" />
          </mxGeometry>
        </mxCell>
        <mxCell id="SrFqV6yDX-PTpv2U8Cud-172" value="&lt;font style=&quot;font-size: 9px;&quot;&gt;rst&lt;/font&gt;" style="text;html=1;align=center;verticalAlign=middle;resizable=0;points=[];autosize=1;strokeColor=none;fillColor=none;fontFamily=Helvetica;fontSize=12;fontColor=default;labelBackgroundColor=default;" vertex="1" parent="1">
          <mxGeometry x="35" y="480" width="30" height="30" as="geometry" />
        </mxCell>
        <mxCell id="SrFqV6yDX-PTpv2U8Cud-173" value="&lt;font style=&quot;font-size: 9px;&quot;&gt;parallel_i[3]&lt;/font&gt;" style="text;html=1;align=center;verticalAlign=middle;resizable=0;points=[];autosize=1;strokeColor=none;fillColor=none;fontFamily=Helvetica;fontSize=12;fontColor=default;labelBackgroundColor=default;" vertex="1" parent="1">
          <mxGeometry x="5" y="467" width="70" height="30" as="geometry" />
        </mxCell>
        <mxCell id="SrFqV6yDX-PTpv2U8Cud-174" value="" style="group;rounded=1;shadow=0;dashed=0;strokeColor=none;align=center;verticalAlign=top;fontFamily=Helvetica;fontSize=12;fontColor=default;labelBackgroundColor=default;fillColor=default;" vertex="1" connectable="0" parent="1">
          <mxGeometry x="268" y="480" width="35" height="20" as="geometry" />
        </mxCell>
        <mxCell id="SrFqV6yDX-PTpv2U8Cud-175" value="" style="verticalLabelPosition=bottom;shadow=0;dashed=0;align=center;html=1;verticalAlign=top;shape=mxgraph.electrical.logic_gates.logic_gate;operation=and;rounded=1;strokeColor=default;fontFamily=Helvetica;fontSize=12;fontColor=default;labelBackgroundColor=default;fillColor=default;" vertex="1" parent="SrFqV6yDX-PTpv2U8Cud-174">
          <mxGeometry x="10" width="25" height="20" as="geometry" />
        </mxCell>
        <mxCell id="SrFqV6yDX-PTpv2U8Cud-176" value="" style="ellipse;whiteSpace=wrap;html=1;aspect=fixed;shadow=0;dashed=0;strokeColor=default;align=center;verticalAlign=top;fontFamily=Helvetica;fontSize=12;fontColor=default;fillColor=default;rounded=1;labelBackgroundColor=default;" vertex="1" parent="SrFqV6yDX-PTpv2U8Cud-174">
          <mxGeometry x="10" y="12.5" width="5" height="5" as="geometry" />
        </mxCell>
        <mxCell id="SrFqV6yDX-PTpv2U8Cud-177" value="" style="endArrow=none;html=1;rounded=0;fontFamily=Helvetica;fontSize=12;fontColor=default;strokeColor=default;align=center;verticalAlign=middle;labelBackgroundColor=default;" edge="1" parent="SrFqV6yDX-PTpv2U8Cud-174">
          <mxGeometry width="50" height="50" relative="1" as="geometry">
            <mxPoint y="15" as="sourcePoint" />
            <mxPoint x="10" y="14.960000000000036" as="targetPoint" />
          </mxGeometry>
        </mxCell>
        <mxCell id="SrFqV6yDX-PTpv2U8Cud-179" value="&lt;font style=&quot;font-size: 9px;&quot;&gt;rst&lt;/font&gt;" style="text;html=1;align=center;verticalAlign=middle;resizable=0;points=[];autosize=1;strokeColor=none;fillColor=none;fontFamily=Helvetica;fontSize=12;fontColor=default;labelBackgroundColor=default;" vertex="1" parent="1">
          <mxGeometry x="247" y="480" width="30" height="30" as="geometry" />
        </mxCell>
        <mxCell id="SrFqV6yDX-PTpv2U8Cud-180" value="" style="shadow=0;dashed=0;align=center;html=1;strokeWidth=1;shape=mxgraph.electrical.abstract.mux2;whiteSpace=wrap;rounded=1;pointerEvents=0;verticalAlign=top;fontFamily=Helvetica;fontSize=12;fontColor=default;labelBackgroundColor=default;fillColor=default;gradientColor=none;" vertex="1" parent="1">
          <mxGeometry x="222" y="470" width="30" height="40" as="geometry" />
        </mxCell>
        <mxCell id="SrFqV6yDX-PTpv2U8Cud-182" value="&lt;font style=&quot;font-size: 8px;&quot;&gt;valid_i&lt;/font&gt;" style="text;html=1;align=center;verticalAlign=middle;resizable=0;points=[];autosize=1;strokeColor=none;fillColor=none;fontFamily=Helvetica;fontSize=12;fontColor=default;labelBackgroundColor=default;" vertex="1" parent="1">
          <mxGeometry x="212" y="500" width="50" height="30" as="geometry" />
        </mxCell>
        <mxCell id="SrFqV6yDX-PTpv2U8Cud-183" style="edgeStyle=orthogonalEdgeStyle;shape=connector;rounded=0;orthogonalLoop=1;jettySize=auto;html=1;exitX=1;exitY=0.25;exitDx=0;exitDy=0;exitPerimeter=0;entryX=0;entryY=0.15;entryDx=0;entryDy=3;entryPerimeter=0;strokeColor=default;align=center;verticalAlign=middle;fontFamily=Helvetica;fontSize=12;fontColor=default;labelBackgroundColor=default;endArrow=none;" edge="1" parent="1" target="SrFqV6yDX-PTpv2U8Cud-180">
          <mxGeometry relative="1" as="geometry">
            <mxPoint x="179.75" y="490" as="sourcePoint" />
            <Array as="points">
              <mxPoint x="187" y="490" />
              <mxPoint x="187" y="479" />
            </Array>
          </mxGeometry>
        </mxCell>
        <mxCell id="SrFqV6yDX-PTpv2U8Cud-184" value="&lt;font style=&quot;font-size: 6px;&quot;&gt;parallel_i[2]&lt;/font&gt;" style="text;html=1;align=center;verticalAlign=middle;resizable=0;points=[];autosize=1;strokeColor=none;fillColor=none;fontFamily=Helvetica;fontSize=12;fontColor=default;labelBackgroundColor=default;" vertex="1" parent="1">
          <mxGeometry x="179.75" y="475" width="50" height="30" as="geometry" />
        </mxCell>
        <mxCell id="SrFqV6yDX-PTpv2U8Cud-185" style="edgeStyle=none;shape=connector;rounded=0;orthogonalLoop=1;jettySize=auto;html=1;exitX=1;exitY=0.5;exitDx=0;exitDy=-5;exitPerimeter=0;entryX=0;entryY=0.25;entryDx=0;entryDy=0;entryPerimeter=0;strokeColor=default;align=center;verticalAlign=middle;fontFamily=Helvetica;fontSize=12;fontColor=default;labelBackgroundColor=default;endArrow=none;" edge="1" parent="1" source="SrFqV6yDX-PTpv2U8Cud-180" target="SrFqV6yDX-PTpv2U8Cud-175">
          <mxGeometry relative="1" as="geometry" />
        </mxCell>
        <mxCell id="SrFqV6yDX-PTpv2U8Cud-186" value="&lt;font style=&quot;font-size: 9px;&quot;&gt;clk&lt;/font&gt;" style="text;html=1;align=center;verticalAlign=middle;resizable=0;points=[];autosize=1;strokeColor=none;fillColor=none;fontFamily=Helvetica;fontSize=12;fontColor=default;labelBackgroundColor=default;" vertex="1" parent="1">
          <mxGeometry x="279" y="513" width="30" height="30" as="geometry" />
        </mxCell>
        <mxCell id="SrFqV6yDX-PTpv2U8Cud-187" value="&lt;font style=&quot;font-size: 9px;&quot;&gt;clk&lt;/font&gt;" style="text;html=1;align=center;verticalAlign=middle;resizable=0;points=[];autosize=1;strokeColor=none;fillColor=none;fontFamily=Helvetica;fontSize=12;fontColor=default;labelBackgroundColor=default;" vertex="1" parent="1">
          <mxGeometry x="65" y="513" width="30" height="30" as="geometry" />
        </mxCell>
        <mxCell id="SrFqV6yDX-PTpv2U8Cud-188" value="" style="verticalLabelPosition=bottom;shadow=0;dashed=0;align=center;html=1;verticalAlign=top;shape=mxgraph.electrical.logic_gates.d_type_flip-flop;rounded=1;" vertex="1" parent="1">
          <mxGeometry x="517" y="470" width="100" height="80" as="geometry" />
        </mxCell>
        <mxCell id="SrFqV6yDX-PTpv2U8Cud-189" value="" style="group;rounded=1;shadow=0;dashed=0;strokeColor=none;align=center;verticalAlign=top;fontFamily=Helvetica;fontSize=12;fontColor=default;labelBackgroundColor=default;fillColor=default;" vertex="1" connectable="0" parent="1">
          <mxGeometry x="483.25" y="480" width="35" height="20" as="geometry" />
        </mxCell>
        <mxCell id="SrFqV6yDX-PTpv2U8Cud-190" value="" style="verticalLabelPosition=bottom;shadow=0;dashed=0;align=center;html=1;verticalAlign=top;shape=mxgraph.electrical.logic_gates.logic_gate;operation=and;rounded=1;strokeColor=default;fontFamily=Helvetica;fontSize=12;fontColor=default;labelBackgroundColor=default;fillColor=default;" vertex="1" parent="SrFqV6yDX-PTpv2U8Cud-189">
          <mxGeometry x="10" width="25" height="20" as="geometry" />
        </mxCell>
        <mxCell id="SrFqV6yDX-PTpv2U8Cud-191" value="" style="ellipse;whiteSpace=wrap;html=1;aspect=fixed;shadow=0;dashed=0;strokeColor=default;align=center;verticalAlign=top;fontFamily=Helvetica;fontSize=12;fontColor=default;fillColor=default;rounded=1;labelBackgroundColor=default;" vertex="1" parent="SrFqV6yDX-PTpv2U8Cud-189">
          <mxGeometry x="10" y="12.5" width="5" height="5" as="geometry" />
        </mxCell>
        <mxCell id="SrFqV6yDX-PTpv2U8Cud-192" value="" style="endArrow=none;html=1;rounded=0;fontFamily=Helvetica;fontSize=12;fontColor=default;strokeColor=default;align=center;verticalAlign=middle;labelBackgroundColor=default;" edge="1" parent="SrFqV6yDX-PTpv2U8Cud-189">
          <mxGeometry width="50" height="50" relative="1" as="geometry">
            <mxPoint y="15" as="sourcePoint" />
            <mxPoint x="10" y="14.960000000000036" as="targetPoint" />
          </mxGeometry>
        </mxCell>
        <mxCell id="SrFqV6yDX-PTpv2U8Cud-193" value="&lt;font style=&quot;font-size: 9px;&quot;&gt;rst&lt;/font&gt;" style="text;html=1;align=center;verticalAlign=middle;resizable=0;points=[];autosize=1;strokeColor=none;fillColor=none;fontFamily=Helvetica;fontSize=12;fontColor=default;labelBackgroundColor=default;" vertex="1" parent="1">
          <mxGeometry x="462.25" y="480" width="30" height="30" as="geometry" />
        </mxCell>
        <mxCell id="SrFqV6yDX-PTpv2U8Cud-194" value="" style="shadow=0;dashed=0;align=center;html=1;strokeWidth=1;shape=mxgraph.electrical.abstract.mux2;whiteSpace=wrap;rounded=1;pointerEvents=0;verticalAlign=top;fontFamily=Helvetica;fontSize=12;fontColor=default;labelBackgroundColor=default;fillColor=default;gradientColor=none;" vertex="1" parent="1">
          <mxGeometry x="437.25" y="470" width="30" height="40" as="geometry" />
        </mxCell>
        <mxCell id="SrFqV6yDX-PTpv2U8Cud-195" value="&lt;font style=&quot;font-size: 8px;&quot;&gt;valid_i&lt;/font&gt;" style="text;html=1;align=center;verticalAlign=middle;resizable=0;points=[];autosize=1;strokeColor=none;fillColor=none;fontFamily=Helvetica;fontSize=12;fontColor=default;labelBackgroundColor=default;" vertex="1" parent="1">
          <mxGeometry x="427.25" y="500" width="50" height="30" as="geometry" />
        </mxCell>
        <mxCell id="SrFqV6yDX-PTpv2U8Cud-196" style="edgeStyle=orthogonalEdgeStyle;shape=connector;rounded=0;orthogonalLoop=1;jettySize=auto;html=1;exitX=1;exitY=0.25;exitDx=0;exitDy=0;exitPerimeter=0;entryX=0;entryY=0.15;entryDx=0;entryDy=3;entryPerimeter=0;strokeColor=default;align=center;verticalAlign=middle;fontFamily=Helvetica;fontSize=12;fontColor=default;labelBackgroundColor=default;endArrow=none;" edge="1" target="SrFqV6yDX-PTpv2U8Cud-194" parent="1">
          <mxGeometry relative="1" as="geometry">
            <mxPoint x="395.25" y="490" as="sourcePoint" />
            <Array as="points">
              <mxPoint x="402.25" y="490" />
              <mxPoint x="402.25" y="479" />
            </Array>
          </mxGeometry>
        </mxCell>
        <mxCell id="SrFqV6yDX-PTpv2U8Cud-197" value="&lt;font style=&quot;font-size: 6px;&quot;&gt;parallel_i[1]&lt;/font&gt;" style="text;html=1;align=center;verticalAlign=middle;resizable=0;points=[];autosize=1;strokeColor=none;fillColor=none;fontFamily=Helvetica;fontSize=12;fontColor=default;labelBackgroundColor=default;" vertex="1" parent="1">
          <mxGeometry x="395" y="475" width="50" height="30" as="geometry" />
        </mxCell>
        <mxCell id="SrFqV6yDX-PTpv2U8Cud-198" style="edgeStyle=none;shape=connector;rounded=0;orthogonalLoop=1;jettySize=auto;html=1;exitX=1;exitY=0.5;exitDx=0;exitDy=-5;exitPerimeter=0;entryX=0;entryY=0.25;entryDx=0;entryDy=0;entryPerimeter=0;strokeColor=default;align=center;verticalAlign=middle;fontFamily=Helvetica;fontSize=12;fontColor=default;labelBackgroundColor=default;endArrow=none;" edge="1" source="SrFqV6yDX-PTpv2U8Cud-194" target="SrFqV6yDX-PTpv2U8Cud-190" parent="1">
          <mxGeometry relative="1" as="geometry" />
        </mxCell>
        <mxCell id="SrFqV6yDX-PTpv2U8Cud-199" value="&lt;font style=&quot;font-size: 9px;&quot;&gt;clk&lt;/font&gt;" style="text;html=1;align=center;verticalAlign=middle;resizable=0;points=[];autosize=1;strokeColor=none;fillColor=none;fontFamily=Helvetica;fontSize=12;fontColor=default;labelBackgroundColor=default;" vertex="1" parent="1">
          <mxGeometry x="494.25" y="513" width="30" height="30" as="geometry" />
        </mxCell>
        <mxCell id="SrFqV6yDX-PTpv2U8Cud-200" value="" style="verticalLabelPosition=bottom;shadow=0;dashed=0;align=center;html=1;verticalAlign=top;shape=mxgraph.electrical.logic_gates.d_type_flip-flop;rounded=1;" vertex="1" parent="1">
          <mxGeometry x="732" y="470" width="100" height="80" as="geometry" />
        </mxCell>
        <mxCell id="SrFqV6yDX-PTpv2U8Cud-201" value="" style="group;rounded=1;shadow=0;dashed=0;strokeColor=none;align=center;verticalAlign=top;fontFamily=Helvetica;fontSize=12;fontColor=default;labelBackgroundColor=default;fillColor=default;" vertex="1" connectable="0" parent="1">
          <mxGeometry x="698.25" y="480" width="35" height="20" as="geometry" />
        </mxCell>
        <mxCell id="SrFqV6yDX-PTpv2U8Cud-202" value="" style="verticalLabelPosition=bottom;shadow=0;dashed=0;align=center;html=1;verticalAlign=top;shape=mxgraph.electrical.logic_gates.logic_gate;operation=and;rounded=1;strokeColor=default;fontFamily=Helvetica;fontSize=12;fontColor=default;labelBackgroundColor=default;fillColor=default;" vertex="1" parent="SrFqV6yDX-PTpv2U8Cud-201">
          <mxGeometry x="10" width="25" height="20" as="geometry" />
        </mxCell>
        <mxCell id="SrFqV6yDX-PTpv2U8Cud-203" value="" style="ellipse;whiteSpace=wrap;html=1;aspect=fixed;shadow=0;dashed=0;strokeColor=default;align=center;verticalAlign=top;fontFamily=Helvetica;fontSize=12;fontColor=default;fillColor=default;rounded=1;labelBackgroundColor=default;" vertex="1" parent="SrFqV6yDX-PTpv2U8Cud-201">
          <mxGeometry x="10" y="12.5" width="5" height="5" as="geometry" />
        </mxCell>
        <mxCell id="SrFqV6yDX-PTpv2U8Cud-204" value="" style="endArrow=none;html=1;rounded=0;fontFamily=Helvetica;fontSize=12;fontColor=default;strokeColor=default;align=center;verticalAlign=middle;labelBackgroundColor=default;" edge="1" parent="SrFqV6yDX-PTpv2U8Cud-201">
          <mxGeometry width="50" height="50" relative="1" as="geometry">
            <mxPoint y="15" as="sourcePoint" />
            <mxPoint x="10" y="14.960000000000036" as="targetPoint" />
          </mxGeometry>
        </mxCell>
        <mxCell id="SrFqV6yDX-PTpv2U8Cud-205" value="&lt;font style=&quot;font-size: 9px;&quot;&gt;rst&lt;/font&gt;" style="text;html=1;align=center;verticalAlign=middle;resizable=0;points=[];autosize=1;strokeColor=none;fillColor=none;fontFamily=Helvetica;fontSize=12;fontColor=default;labelBackgroundColor=default;" vertex="1" parent="1">
          <mxGeometry x="677.25" y="480" width="30" height="30" as="geometry" />
        </mxCell>
        <mxCell id="SrFqV6yDX-PTpv2U8Cud-206" value="" style="shadow=0;dashed=0;align=center;html=1;strokeWidth=1;shape=mxgraph.electrical.abstract.mux2;whiteSpace=wrap;rounded=1;pointerEvents=0;verticalAlign=top;fontFamily=Helvetica;fontSize=12;fontColor=default;labelBackgroundColor=default;fillColor=default;gradientColor=none;" vertex="1" parent="1">
          <mxGeometry x="652.25" y="470" width="30" height="40" as="geometry" />
        </mxCell>
        <mxCell id="SrFqV6yDX-PTpv2U8Cud-207" value="&lt;font style=&quot;font-size: 8px;&quot;&gt;valid_i&lt;/font&gt;" style="text;html=1;align=center;verticalAlign=middle;resizable=0;points=[];autosize=1;strokeColor=none;fillColor=none;fontFamily=Helvetica;fontSize=12;fontColor=default;labelBackgroundColor=default;" vertex="1" parent="1">
          <mxGeometry x="642.25" y="500" width="50" height="30" as="geometry" />
        </mxCell>
        <mxCell id="SrFqV6yDX-PTpv2U8Cud-208" style="edgeStyle=orthogonalEdgeStyle;shape=connector;rounded=0;orthogonalLoop=1;jettySize=auto;html=1;exitX=1;exitY=0.25;exitDx=0;exitDy=0;exitPerimeter=0;entryX=0;entryY=0.15;entryDx=0;entryDy=3;entryPerimeter=0;strokeColor=default;align=center;verticalAlign=middle;fontFamily=Helvetica;fontSize=12;fontColor=default;labelBackgroundColor=default;endArrow=none;" edge="1" target="SrFqV6yDX-PTpv2U8Cud-206" parent="1">
          <mxGeometry relative="1" as="geometry">
            <mxPoint x="610.25" y="490" as="sourcePoint" />
            <Array as="points">
              <mxPoint x="617.25" y="490" />
              <mxPoint x="617.25" y="479" />
            </Array>
          </mxGeometry>
        </mxCell>
        <mxCell id="SrFqV6yDX-PTpv2U8Cud-209" value="&lt;font style=&quot;font-size: 6px;&quot;&gt;parallel_i[0]&lt;/font&gt;" style="text;html=1;align=center;verticalAlign=middle;resizable=0;points=[];autosize=1;strokeColor=none;fillColor=none;fontFamily=Helvetica;fontSize=12;fontColor=default;labelBackgroundColor=default;" vertex="1" parent="1">
          <mxGeometry x="610" y="475" width="50" height="30" as="geometry" />
        </mxCell>
        <mxCell id="SrFqV6yDX-PTpv2U8Cud-210" style="edgeStyle=none;shape=connector;rounded=0;orthogonalLoop=1;jettySize=auto;html=1;exitX=1;exitY=0.5;exitDx=0;exitDy=-5;exitPerimeter=0;entryX=0;entryY=0.25;entryDx=0;entryDy=0;entryPerimeter=0;strokeColor=default;align=center;verticalAlign=middle;fontFamily=Helvetica;fontSize=12;fontColor=default;labelBackgroundColor=default;endArrow=none;" edge="1" source="SrFqV6yDX-PTpv2U8Cud-206" target="SrFqV6yDX-PTpv2U8Cud-202" parent="1">
          <mxGeometry relative="1" as="geometry" />
        </mxCell>
        <mxCell id="SrFqV6yDX-PTpv2U8Cud-211" value="&lt;font style=&quot;font-size: 9px;&quot;&gt;clk&lt;/font&gt;" style="text;html=1;align=center;verticalAlign=middle;resizable=0;points=[];autosize=1;strokeColor=none;fillColor=none;fontFamily=Helvetica;fontSize=12;fontColor=default;labelBackgroundColor=default;" vertex="1" parent="1">
          <mxGeometry x="709.25" y="513" width="30" height="30" as="geometry" />
        </mxCell>
        <mxCell id="SrFqV6yDX-PTpv2U8Cud-212" value="&lt;font style=&quot;font-size: 9px;&quot;&gt;serial_o&lt;/font&gt;" style="text;html=1;align=center;verticalAlign=middle;resizable=0;points=[];autosize=1;strokeColor=none;fillColor=none;fontFamily=Helvetica;fontSize=12;fontColor=default;labelBackgroundColor=default;" vertex="1" parent="1">
          <mxGeometry x="800" y="467" width="60" height="30" as="geometry" />
        </mxCell>
      </root>
    </mxGraphModel>
  </diagram>
</mxfile>
